<?xml version="1.0" encoding="UTF-8" standalone="no"?>
<!-- Created with Inkscape (http://www.inkscape.org/) -->

<svg
   xmlns:dc="http://purl.org/dc/elements/1.1/"
   xmlns:cc="http://creativecommons.org/ns#"
   xmlns:rdf="http://www.w3.org/1999/02/22-rdf-syntax-ns#"
   xmlns:svg="http://www.w3.org/2000/svg"
   xmlns="http://www.w3.org/2000/svg"
   xmlns:sodipodi="http://sodipodi.sourceforge.net/DTD/sodipodi-0.dtd"
   xmlns:inkscape="http://www.inkscape.org/namespaces/inkscape"
   width="32.676041mm"
   height="84.322708mm"
   viewBox="0 0 32.676041 84.322708"
   version="1.1"
   id="svg8"
   inkscape:version="0.92.2 (5c3e80d, 2017-08-06)"
   sodipodi:docname="burrito.svg">
  <defs
     id="defs2" />
  <sodipodi:namedview
     id="base"
     pagecolor="#ffffff"
     bordercolor="#666666"
     borderopacity="1.0"
     inkscape:pageopacity="0.0"
     inkscape:pageshadow="2"
     inkscape:zoom="1.4"
     inkscape:cx="-225.55202"
     inkscape:cy="-161.14136"
     inkscape:document-units="mm"
     inkscape:current-layer="layer1"
     showgrid="false"
     inkscape:window-width="3773"
     inkscape:window-height="2098"
     inkscape:window-x="67"
     inkscape:window-y="34"
     inkscape:window-maximized="1" />
  <metadata
     id="metadata5">
    <rdf:RDF>
      <cc:Work
         rdf:about="">
        <dc:format>image/svg+xml</dc:format>
        <dc:type
           rdf:resource="http://purl.org/dc/dcmitype/StillImage" />
        <dc:title></dc:title>
      </cc:Work>
    </rdf:RDF>
  </metadata>
  <g
     inkscape:label="Layer 1"
     inkscape:groupmode="layer"
     id="layer1"
     transform="translate(-6.1515625,-10.099063)">
    <g
       id="g928"
       transform="matrix(0.26458333,0,0,0.26458333,-4.9873957,-8.2630198)">
      <g
         id="bg-white" />
      <g
         id="icons">
        <circle
           id="ellipse818"
           cy="101.1"
           cx="141.5"
           class="st0"
           transform="matrix(0.6392,-0.769,0.769,0.6392,-26.6788,145.3275)"
           r="22"
           style="fill:#81ba13" />
        <circle
           id="ellipse820"
           cy="102.1"
           cx="72.300003"
           class="st0"
           transform="matrix(0.9428,-0.3335,0.3335,0.9428,-29.8973,29.9586)"
           r="24.6"
           style="fill:#81ba13" />
        <circle
           id="ellipse822"
           cy="95.800003"
           cx="101.4"
           class="st0"
           transform="matrix(0.9428,-0.3335,0.3335,0.9428,-26.1406,39.2951)"
           r="24.6"
           style="fill:#81ba13" />
        <circle
           id="ellipse824"
           cy="117.5"
           cx="126.2"
           class="st1"
           transform="matrix(0.1645,-0.9864,0.9864,0.1645,-10.5217,222.6534)"
           r="36.599998"
           style="fill:#ea4e47" />
        <g
           id="g840">
          <rect
             id="rect826"
             height="29.6"
             width="39.099998"
             class="st2"
             transform="matrix(0.9848,-0.1736,0.1736,0.9848,-13.5787,23.9863)"
             y="74.800003"
             x="110.8"
             style="fill:#21c095" />
          <polygon
             id="polygon828"
             points="137.5,91.8 129.5,101.4 130.1,105.1 153.4,101 "
             class="st3"
             style="fill:#009273" />
          <polygon
             id="polygon830"
             points="118.1,91.8 110.7,99.7 112.3,108.3 140.6,103.3 "
             class="st3"
             style="fill:#009273" />
          <ellipse
             id="ellipse832"
             ry="6.9000001"
             rx="9.1000004"
             cy="81.800003"
             cx="137.7"
             class="st4"
             transform="matrix(0.9848,-0.1736,0.1736,0.9848,-12.1068,25.1536)"
             style="fill:#009966" />
          <g
             id="g836"
             class="st5"
             style="display:none">
            <path
               id="path834"
               d="m 106.1,77.2 5.7,32.3 42.6,-7.5 -5.7,-32.3 z m 47.6,24.5 -41.3,7.3 -5.5,-31.5 41.3,-7.3 z"
               class="st6"
               inkscape:connector-curvature="0"
               style="display:inline" />
          </g>
          <path
             id="path838"
             d="m 106.8,77.5 5.5,31.5 41.4,-7.3 -5.5,-31.5 z m 45.3,23.3 -38.5,6.8 -5.1,-29.1 38.5,-6.8 z"
             class="st7"
             inkscape:connector-curvature="0"
             style="fill:#ffffff" />
        </g>
        <g
           id="g852">
          <rect
             id="rect842"
             height="27.6"
             width="36.799999"
             class="st8"
             transform="rotate(19.998771,81.06694,90.115975)"
             y="76.300003"
             x="62.700001"
             style="fill:#e84636" />
          <polygon
             id="polygon844"
             points="87.4,92.4 78.6,82.7 74.4,94.2 "
             class="st9"
             style="fill:#f9cd16" />
          <g
             id="g848"
             class="st5"
             style="display:none">
            <path
               id="path846"
               d="m 67.1,68.8 -10.4,28.7 38.3,14 10.4,-28.7 z m 27.4,42.1 -37.1,-13.5 10.2,-28 37.1,13.5 z"
               class="st6"
               inkscape:connector-curvature="0"
               style="display:inline" />
          </g>
          <path
             id="path850"
             d="m 67.6,69.4 -10.2,28 37.1,13.5 10.2,-28 z m 26,40 L 59.1,96.8 68.5,70.9 103,83.5 Z"
             class="st7"
             inkscape:connector-curvature="0"
             style="fill:#ffffff" />
        </g>
      </g>
      <g
         id="burrito">
        <path
           id="path855"
           d="M 42.1,343.6 V 107 c 0,-6.1 4.9,-11 11,-11 h 101.5 c 6.1,0 11,4.9 11,11 v 236.6 c 0,24.6 -19.9,44.5 -44.5,44.5 H 86.6 c -24.5,0 -44.5,-19.9 -44.5,-44.5 z"
           class="st9"
           inkscape:connector-curvature="0"
           style="fill:#f9cd16" />
        <path
           id="path857"
           d="m 83.8,359.3 c 3.2,0 5.9,2.6 5.9,5.9 0,3.3 -2.6,5.9 -5.9,5.9 -3.2,0 -5.9,-2.6 -5.9,-5.9 0,-3.3 2.7,-5.9 5.9,-5.9 z"
           class="st10"
           inkscape:connector-curvature="0"
           style="fill:#f4b12a" />
        <path
           id="path859"
           d="m 66.5,351.1 c -2.3,1.2 -5.1,0.3 -6.2,-2 -1.1,-2.3 -0.3,-5.1 2,-6.2 2.3,-1.2 5.1,-0.3 6.2,2 1.1,2.2 0.2,5 -2,6.2 z"
           class="st10"
           inkscape:connector-curvature="0"
           style="fill:#f4b12a" />
        <path
           id="path861"
           d="m 62.4,314 c 2.9,0 5.2,2.3 5.2,5.2 0,2.9 -2.3,5.2 -5.2,5.2 -2.9,0 -5.2,-2.3 -5.2,-5.2 0,-2.9 2.4,-5.2 5.2,-5.2 z"
           class="st10"
           inkscape:connector-curvature="0"
           style="fill:#f4b12a" />
        <circle
           id="ellipse863"
           cy="138"
           cx="89.699997"
           class="st10"
           transform="matrix(0.419,-0.908,0.908,0.419,-73.2365,161.6286)"
           r="7.0999999"
           style="fill:#f4b12a" />
        <path
           id="path865"
           d="m 123.9,125.5 c -2.2,-1.8 -2.5,-5 -0.7,-7.2 1.8,-2.2 5,-2.5 7.2,-0.7 2.2,1.8 2.5,5 0.7,7.2 -1.8,2.2 -5,2.5 -7.2,0.7 z"
           class="st10"
           inkscape:connector-curvature="0"
           style="fill:#f4b12a" />
        <path
           id="path867"
           d="m 138.7,157.5 c 1.3,3.1 -0.1,6.7 -3.2,8 -3.1,1.3 -6.7,-0.1 -8,-3.2 -1.3,-3.1 0.1,-6.7 3.2,-8 3.1,-1.4 6.7,0.1 8,3.2 z"
           class="st10"
           inkscape:connector-curvature="0"
           style="fill:#f4b12a" />
        <g
           id="g873">
          <path
             id="path869"
             d="m 85,223.7 c -2.5,0 -4.5,-2 -4.5,-4.5 0,-4.1 -3.4,-7.5 -7.5,-7.5 -4.1,0 -7.5,3.4 -7.5,7.5 0,2.5 -2,4.5 -4.5,4.5 -2.5,0 -4.5,-2 -4.5,-4.5 0,-9.1 7.4,-16.5 16.5,-16.5 9.1,0 16.5,7.4 16.5,16.5 0,2.4 -2,4.5 -4.5,4.5 z"
             class="st11"
             inkscape:connector-curvature="0"
             style="fill:#381c04" />
          <path
             id="path871"
             d="m 146.8,223.7 c -2.5,0 -4.5,-2 -4.5,-4.5 0,-4.1 -3.4,-7.5 -7.5,-7.5 -4.1,0 -7.5,3.4 -7.5,7.5 0,2.5 -2,4.5 -4.5,4.5 -2.5,0 -4.5,-2 -4.5,-4.5 0,-9.1 7.4,-16.5 16.5,-16.5 9.1,0 16.5,7.4 16.5,16.5 0,2.4 -2,4.5 -4.5,4.5 z"
             class="st11"
             inkscape:connector-curvature="0"
             style="fill:#381c04" />
        </g>
        <path
           id="path875"
           d="m 131.4,255.2 c 0,15.2 -12.3,27.5 -27.5,27.5 -15.2,0 -27.5,-12.3 -27.5,-27.5 0,-15.2 10.6,-12.2 25.8,-12.2 15.2,0 29.2,-2.9 29.2,12.2 z"
           class="st7"
           inkscape:connector-curvature="0"
           style="fill:#ffffff" />
        <g
           id="g881">
          <path
             id="path877"
             d="M 64.4,276 H 48 v 0 c 0,-24.3 19.7,-44 44,-44 h 16.3 v 0 c 0.1,24.3 -19.6,44 -43.9,44 z"
             class="st12"
             inkscape:connector-curvature="0"
             style="fill:#895100" />
          <path
             id="path879"
             d="m 143.4,276 h 16.3 v 0 c 0,-24.3 -19.7,-44 -44,-44 H 99.4 v 0 c 0,24.3 19.7,44 44,44 z"
             class="st12"
             inkscape:connector-curvature="0"
             style="fill:#895100" />
        </g>
      </g>
    </g>
  </g>
  <style
     id="style815"
     type="text/css">
	.st0{fill:#81BA13;}
	.st1{fill:#EA4E47;}
	.st2{fill:#21C095;}
	.st3{fill:#009273;}
	.st4{fill:#009966;}
	.st5{display:none;}
	.st6{display:inline;}
	.st7{fill:#FFFFFF;}
	.st8{fill:#E84636;}
	.st9{fill:#F9CD16;}
	.st10{fill:#F4B12A;}
	.st11{fill:#381C04;}
	.st12{fill:#895100;}
</style>
</svg>
