<?xml version="1.0" encoding="UTF-8" standalone="no"?>
<!-- Generator: Adobe Illustrator 21.1.0, SVG Export Plug-In . SVG Version: 6.00 Build 0)  -->

<svg
   xmlns:dc="http://purl.org/dc/elements/1.1/"
   xmlns:cc="http://creativecommons.org/ns#"
   xmlns:rdf="http://www.w3.org/1999/02/22-rdf-syntax-ns#"
   xmlns:svg="http://www.w3.org/2000/svg"
   xmlns="http://www.w3.org/2000/svg"
   xmlns:sodipodi="http://sodipodi.sourceforge.net/DTD/sodipodi-0.dtd"
   xmlns:inkscape="http://www.inkscape.org/namespaces/inkscape"
   version="1.1"
   id="Ebene_1"
   x="0px"
   y="0px"
   viewBox="0 0 468 102"
   style="enable-background:new 0 0 468 102;"
   xml:space="preserve"
   sodipodi:docname="storrito.svg"
   inkscape:version="0.92.3 (2405546, 2018-03-11)"><metadata
   id="metadata33"><rdf:RDF><cc:Work
       rdf:about=""><dc:format>image/svg+xml</dc:format><dc:type
         rdf:resource="http://purl.org/dc/dcmitype/StillImage" /></cc:Work></rdf:RDF></metadata><defs
   id="defs31" /><sodipodi:namedview
   pagecolor="#ffffff"
   bordercolor="#666666"
   borderopacity="1"
   objecttolerance="10"
   gridtolerance="10"
   guidetolerance="10"
   inkscape:pageopacity="0"
   inkscape:pageshadow="2"
   inkscape:window-width="1194"
   inkscape:window-height="757"
   id="namedview29"
   showgrid="false"
   inkscape:zoom="0.73076923"
   inkscape:cx="274.01697"
   inkscape:cy="3.1052632"
   inkscape:window-x="1224"
   inkscape:window-y="377"
   inkscape:window-maximized="0"
   inkscape:current-layer="Ebene_1" />
<style
   type="text/css"
   id="style2">
	.st0{fill:#FFFFFF;}
</style>
<g
   id="g6"
   style="fill:#000000">
	<path
   class="st0"
   d="M64.6,90.2H17.2c-8.5,0-15.5-7-15.5-15.5V27.3c0-8.5,7-15.5,15.5-15.5h47.4c8.5,0,15.5,7,15.5,15.5v47.4   C80.1,83.3,73.2,90.2,64.6,90.2z M17.2,18.8c-4.7,0-8.5,3.8-8.5,8.5v47.4c0,4.7,3.8,8.5,8.5,8.5h47.4c4.7,0,8.5-3.8,8.5-8.5V27.3   c0-4.7-3.8-8.5-8.5-8.5C64.6,18.8,17.2,18.8,17.2,18.8z"
   id="path4"
   style="fill:#000000" />
</g>
<g
   id="g24"
   style="fill:#000000">
	<path
   class="st0"
   d="M101.9,61.3c0.3,2.4,1,4.3,2,5.5c1.9,2.2,5,3.3,9.5,3.3c2.7,0,4.9-0.3,6.6-0.9c3.2-1.1,4.8-3.2,4.8-6.2   c0-1.8-0.8-3.1-2.3-4.1c-1.6-0.9-4-1.8-7.4-2.5l-5.8-1.3c-5.7-1.3-9.6-2.6-11.7-4.1c-3.6-2.5-5.4-6.3-5.4-11.6   c0-4.8,1.8-8.8,5.3-11.9c3.5-3.2,8.7-4.8,15.5-4.8c5.7,0,10.6,1.5,14.6,4.5c4,3,6.1,7.3,6.3,13h-10.7c-0.2-3.2-1.6-5.5-4.3-6.9   c-1.8-0.9-4-1.3-6.7-1.3c-3,0-5.3,0.6-7.1,1.7c-1.8,1.2-2.6,2.8-2.6,4.9c0,1.9,0.9,3.3,2.6,4.3c1.1,0.6,3.5,1.4,7.1,2.2l9.4,2.2   c4.1,1,7.2,2.3,9.3,3.9c3.2,2.5,4.8,6.2,4.8,10.9c0,4.9-1.9,9-5.7,12.2s-9.1,4.8-16,4.8c-7,0-12.6-1.6-16.6-4.8   c-4-3.2-6.1-7.6-6.1-13.1L101.9,61.3L101.9,61.3z"
   id="path8"
   style="fill:#000000" />
	<path
   class="st0"
   d="M182.3,24.3v9.5h-16v44H155v-44h-16.1v-9.5C138.9,24.3,182.3,24.3,182.3,24.3z"
   id="path10"
   style="fill:#000000" />
	<path
   class="st0"
   d="M228.7,73.1c-4,4.2-9.9,6.2-17.5,6.2s-13.5-2.1-17.5-6.2c-5.4-5.1-8.1-12.5-8.1-22.1c0-9.8,2.7-17.2,8.1-22.1   c4-4.2,9.9-6.2,17.5-6.2s13.5,2.1,17.5,6.2c5.4,4.9,8.1,12.3,8.1,22.1C236.8,60.6,234.1,67.9,228.7,73.1z M221.8,64.9   c2.6-3.3,3.9-7.9,3.9-13.9s-1.3-10.6-3.9-13.9c-2.6-3.3-6.1-4.9-10.5-4.9s-8,1.6-10.6,4.9c-2.6,3.3-4,7.9-4,13.9s1.3,10.7,4,13.9   c2.6,3.3,6.2,4.9,10.6,4.9C215.6,69.8,219.1,68.2,221.8,64.9z"
   id="path12"
   style="fill:#000000" />
	<path
   class="st0"
   d="M279.7,25.7c2,0.8,3.6,2.1,5,3.7c1.1,1.4,2,2.9,2.7,4.5s1,3.5,1,5.6c0,2.5-0.6,5-1.9,7.5s-3.4,4.2-6.4,5.2   c2.5,1,4.2,2.4,5.2,4.2s1.5,4.6,1.5,8.4v3.6c0,2.4,0.1,4.1,0.3,5c0.3,1.4,1,2.4,2.1,3v1.3h-12.3c-0.3-1.2-0.6-2.1-0.7-2.9   c-0.3-1.5-0.4-3-0.5-4.6l-0.1-5c0-3.4-0.6-5.7-1.8-6.8s-3.3-1.7-6.4-1.7h-10.9v21h-10.9V24.3h25.6   C274.9,24.4,277.7,24.8,279.7,25.7z M256.6,33.6V48h12c2.4,0,4.2-0.3,5.4-0.9c2.1-1,3.2-3,3.2-6c0-3.2-1-5.4-3.1-6.5   c-1.1-0.6-2.9-0.9-5.2-0.9L256.6,33.6L256.6,33.6z"
   id="path14"
   style="fill:#000000" />
	<path
   class="st0"
   d="M333.4,25.7c2,0.8,3.6,2.1,5,3.7c1.1,1.4,2,2.9,2.7,4.5s1,3.5,1,5.6c0,2.5-0.6,5-1.9,7.5s-3.4,4.2-6.4,5.2   c2.5,1,4.2,2.4,5.2,4.2s1.5,4.6,1.5,8.4v3.6c0,2.4,0.1,4.1,0.3,5c0.3,1.4,1,2.4,2.1,3v1.3h-12.3c-0.3-1.2-0.6-2.1-0.7-2.9   c-0.3-1.5-0.4-3-0.5-4.6l-0.1-5c0-3.4-0.6-5.7-1.8-6.8s-3.3-1.7-6.4-1.7h-10.9v21h-10.9V24.3h25.6   C328.6,24.4,331.4,24.8,333.4,25.7z M310.3,33.6V48h12c2.4,0,4.2-0.3,5.4-0.9c2.1-1,3.2-3,3.2-6c0-3.2-1-5.4-3.1-6.5   c-1.1-0.6-2.9-0.9-5.2-0.9L310.3,33.6L310.3,33.6z"
   id="path16"
   style="fill:#000000" />
	<path
   class="st0"
   d="M363,77.8h-11.1V24.3H363V77.8z"
   id="path18"
   style="fill:#000000" />
	<path
   class="st0"
   d="M412.3,24.3v9.5h-16v44H385v-44h-16v-9.5C369,24.3,412.3,24.3,412.3,24.3z"
   id="path20"
   style="fill:#000000" />
	<path
   class="st0"
   d="M458.8,73.1c-4,4.2-9.9,6.2-17.5,6.2s-13.5-2.1-17.5-6.2c-5.4-5.1-8.1-12.5-8.1-22.1c0-9.8,2.7-17.2,8.1-22.1   c4-4.2,9.9-6.2,17.5-6.2s13.5,2.1,17.5,6.2c5.4,4.9,8.1,12.3,8.1,22.1C466.9,60.6,464.2,67.9,458.8,73.1z M451.8,64.9   c2.6-3.3,3.9-7.9,3.9-13.9s-1.3-10.6-3.9-13.9c-2.6-3.3-6.1-4.9-10.5-4.9s-8,1.6-10.6,4.9c-2.6,3.3-4,7.9-4,13.9s1.3,10.7,4,13.9   c2.6,3.3,6.2,4.9,10.6,4.9C445.7,69.8,449.2,68.2,451.8,64.9z"
   id="path22"
   style="fill:#000000" />
</g>
<path
   class="st0"
   d="M13,58.4l0.9,0.7c0.6,3.3,3.2,7.5,6.9,11.3c3.8,3.8,8,6.4,11.3,6.9l0.7,0.9l34-25.9l-0.3-0.5  c0.5-1.1,1.1-3.1,1.2-5.7c0-3.6-1.2-9.2-7.2-15.1c-3.3-3.3-8.6-7.3-15.2-7.3c-2.7,0-4.7,0.6-5.9,1l-0.6-0.3L13,58.4z M64,48.2  c-0.6-0.7-1.3-1.4-2.1-2.2c0.1-0.8-0.1-1.5-0.3-2.1c-0.1-0.3-0.1-0.6-0.2-0.8c0-0.1,0-0.4,0.1-0.6c0.1-0.8,0.2-1.9-0.3-3  c-0.4-0.9-1.2-1.3-1.8-1.7c-0.3-0.2-0.6-0.4-0.7-0.5c-0.1-0.1-0.2-0.5-0.2-0.7c-0.2-0.7-0.5-1.6-1.2-2.3s-1.6-1-2.3-1.2  c-0.2-0.1-0.6-0.2-0.7-0.2c-0.1-0.1-0.4-0.5-0.5-0.7c-0.4-0.6-0.9-1.4-1.7-1.8c-1.1-0.6-2.2-0.4-3-0.3c-0.2,0-0.5,0.1-0.6,0.1  c-0.2,0-0.5-0.1-0.8-0.2c-0.6-0.2-1.3-0.4-2.1-0.3c-0.8-0.9-1.6-1.6-2.3-2.2c0.7-0.1,1.4-0.2,2.3-0.1c4.3,0.1,8.5,2.2,12.6,6.3  s6.1,8.2,6.2,12.4C64.2,46.8,64.1,47.6,64,48.2L64,48.2z M48.3,33.6c0.4,0,0.7,0,1.1-0.1c0.3,0,0.7-0.1,0.9,0  c0.1,0.1,0.3,0.4,0.4,0.6c0.3,0.5,0.7,1.2,1.4,1.7c0.6,0.5,1.3,0.7,1.9,0.8c0.3,0.1,0.7,0.2,0.8,0.3s0.2,0.5,0.3,0.8  c0.2,0.6,0.4,1.3,0.8,1.9c0.5,0.7,1.1,1.1,1.7,1.4c0.2,0.1,0.5,0.3,0.6,0.4c0,0.2,0,0.6,0,0.9c0,0.3-0.1,0.6-0.1,0.9  c-2.1-1.2-4.5-2.1-7.3-2.4c-0.1-0.7-0.2-1.5-0.4-2.2C49.8,36.7,49.1,35,48.3,33.6L48.3,33.6z M33.7,73.3c-1-1.8-2.6-4.9-3.2-8.6  c0.9,0,1.8-0.1,2.8-0.3c5.3-0.9,9.7-4.1,13.2-9.4c2.4-3.6,3.8-7.2,4.1-10.7c5.9,0.7,9.9,5.2,11.5,7.4L33.7,73.3L33.7,73.3z   M23.3,67.9c-2.1-2.1-3.6-4.2-4.6-6c2.2,1,5,2.1,8.1,2.5c0.4,3.2,1.5,6,2.5,8.1C27.5,71.6,25.5,70.1,23.3,67.9L23.3,67.9z   M32.6,60.9c-6,1.1-11.9-1.7-14.6-3.3l21.6-28.5c2,1.5,5.9,5.1,7.1,10.2c1,4.3-0.1,8.9-3.3,13.7C40.6,57.5,36.9,60.1,32.6,60.9  L32.6,60.9z"
   id="path26"
   style="fill:#000000" />
</svg>